<svg id="Layer_1" height="428" viewBox="42 42 428 428" width="428" xmlns="http://www.w3.org/2000/svg" data-name="Layer 1"><path d="m467.78 225.97c16.59 116.96-64.78 225.22-181.75 241.81s-225.22-64.78-241.81-181.75 64.78-225.22 181.75-241.81 225.22 64.78 241.81 181.75z" fill="#75d87a"/><path d="m178.41 331.18c37.33 38.14 55.31 88.11 54.81 137.55-95.15-10.11-174.95-83.64-189-182.7q-.96-6.795-1.48-13.54a193.961 193.961 0 0 1 135.67 58.69z" fill="#49c160"/><path d="m469.77 248.16h-.03c-52.67 1.67-105.65-17.81-144.67-58.69a193.479 193.479 0 0 1 -54.41-146.91v-.01c98.7 6.69 182.67 81.55 197.12 183.42a218.157 218.157 0 0 1 1.99 22.19z" fill="#49c160"/><path d="m83.2 277.473c-11.554-113.638 68.659-217.068 182.77-233.253q5.133-.727 10.24-1.2a214.377 214.377 0 0 0 -50.24 1.2c-112.441 15.948-191.97 116.606-183.223 228.27a193.194 193.194 0 0 1 40.453 4.982z" fill="#62bc64"/><path d="m84.22 286.03c-.406-2.859-.735-5.711-1.025-8.558a193.259 193.259 0 0 0 -40.455-4.982q.51 6.75 1.48 13.54c14.05 99.06 93.85 172.59 189 182.7.028-2.746-.011-5.494-.1-8.242a213.916 213.916 0 0 1 -148.9-174.458z" fill="#3fa04f"/><g fill="#f4f8fc"><path d="m108.1 183.429a6 6 0 0 1 -5.291-8.82 174.17 174.17 0 0 1 84.307-77.849 6 6 0 1 1 4.758 11.016 162.139 162.139 0 0 0 -78.474 72.472 6 6 0 0 1 -5.3 3.181z"/><path d="m215.535 99.491a6 6 0 0 1 -1.435-11.826 176.184 176.184 0 0 1 17.547-3.405 6 6 0 0 1 1.685 11.881 164.043 164.043 0 0 0 -16.348 3.172 6.007 6.007 0 0 1 -1.449.178z"/></g></svg>